<svg xmlns="http://www.w3.org/2000/svg" width="1200" height="794" viewBox="0 0 1200 794" role="img" aria-labelledby="title desc"><title id="title">DeckGhost Pull Kanban</title><desc id="desc">DeckGhost task kanban generated from tasks markdown</desc><rect width="100%" height="100%" rx="12" fill="#010409"/><text x="20" y="34" fill="#f0f6fc" font-size="21" font-weight="800">DeckGhost Pull Kanban</text><text x="20" y="58" fill="#8b949e" font-size="12">tasks/*.md が正本 · WIP上限を超えたレーンは赤表示</text><text x="1180" y="34" text-anchor="end" fill="#8b949e" font-size="12">77 tasks</text><g><rect x="16" y="102" width="224" height="674" rx="10" fill="#0d1117" stroke="#30363d"/><text x="28" y="128" fill="#8b949e" font-size="14" font-weight="800">BACKLOG</text><text x="228" y="128" text-anchor="end" fill="#8b949e" font-size="12">0</text><text x="28" y="147" fill="#8b949e" font-size="10">待機</text></g><g><rect x="252" y="102" width="224" height="674" rx="10" fill="#0d1117" stroke="#30363d"/><text x="264" y="128" fill="#58a6ff" font-size="14" font-weight="800">READY</text><text x="464" y="128" text-anchor="end" fill="#8b949e" font-size="12">0/8</text><text x="264" y="147" fill="#8b949e" font-size="10">着手可能</text></g><g><rect x="488" y="102" width="224" height="674" rx="10" fill="#0d1117" stroke="#30363d"/><text x="500" y="128" fill="#d29922" font-size="14" font-weight="800">ACTIVE WIP</text><text x="700" y="128" text-anchor="end" fill="#8b949e" font-size="12">0/8</text><text x="500" y="147" fill="#8b949e" font-size="10">進行中</text></g><g><rect x="724" y="102" width="224" height="674" rx="10" fill="#0d1117" stroke="#30363d"/><text x="736" y="128" fill="#bc8cff" font-size="14" font-weight="800">QUALITY GATE</text><text x="936" y="128" text-anchor="end" fill="#8b949e" font-size="12">0/4</text><text x="736" y="147" fill="#8b949e" font-size="10">検証・レビュー</text></g><g><rect x="960" y="102" width="224" height="674" rx="10" fill="#0d1117" stroke="#30363d"/><text x="972" y="128" fill="#3fb950" font-size="14" font-weight="800">DONE</text><text x="1172" y="128" text-anchor="end" fill="#8b949e" font-size="12">77</text><text x="972" y="147" fill="#8b949e" font-size="10">完了</text><g><rect x="968" y="160" width="208" height="68" rx="8" fill="#161b22" stroke="#30363d"/><rect x="968" y="160" width="5" height="68" rx="3" fill="#3fb950"/><text x="982" y="181" fill="#f0f6fc" font-size="12" font-weight="700">◽◽◽◽◽◽</text><text x="1164" y="181" text-anchor="end" fill="#8b949e" font-size="10">P3 · dg</text><text x="982" y="203" fill="#c9d1d9" font-size="11">Merge PR #◽ from A…</text><text x="982" y="219" fill="#8b949e" font-size="9">DONE · history.md</text></g><g><rect x="968" y="236" width="208" height="68" rx="8" fill="#161b22" stroke="#30363d"/><rect x="968" y="236" width="5" height="68" rx="3" fill="#3fb950"/><text x="982" y="257" fill="#f0f6fc" font-size="12" font-weight="700">◽◽◽◽◽◽</text><text x="1164" y="257" text-anchor="end" fill="#8b949e" font-size="10">P3 · dg</text><text x="982" y="279" fill="#c9d1d9" font-size="11">Merge PR #◽ from A…</text><text x="982" y="295" fill="#8b949e" font-size="9">DONE · history.md</text></g><g><rect x="968" y="312" width="208" height="68" rx="8" fill="#161b22" stroke="#30363d"/><rect x="968" y="312" width="5" height="68" rx="3" fill="#3fb950"/><text x="982" y="333" fill="#f0f6fc" font-size="12" font-weight="700">◽◽◽◽◽◽</text><text x="1164" y="333" text-anchor="end" fill="#8b949e" font-size="10">P3 · dg</text><text x="982" y="355" fill="#c9d1d9" font-size="11">Merge PR #◽ from A…</text><text x="982" y="371" fill="#8b949e" font-size="9">DONE · history.md</text></g><g><rect x="968" y="388" width="208" height="68" rx="8" fill="#161b22" stroke="#30363d"/><rect x="968" y="388" width="5" height="68" rx="3" fill="#3fb950"/><text x="982" y="409" fill="#f0f6fc" font-size="12" font-weight="700">◽◽◽◽◽◽</text><text x="1164" y="409" text-anchor="end" fill="#8b949e" font-size="10">P3 · dg</text><text x="982" y="431" fill="#c9d1d9" font-size="11">Merge PR #◽ from A…</text><text x="982" y="447" fill="#8b949e" font-size="9">DONE · history.md</text></g><g><rect x="968" y="464" width="208" height="68" rx="8" fill="#161b22" stroke="#30363d"/><rect x="968" y="464" width="5" height="68" rx="3" fill="#3fb950"/><text x="982" y="485" fill="#f0f6fc" font-size="12" font-weight="700">◽◽◽◽◽◽</text><text x="1164" y="485" text-anchor="end" fill="#8b949e" font-size="10">P3 · dg</text><text x="982" y="507" fill="#c9d1d9" font-size="11">Merge PR #◽◽ from …</text><text x="982" y="523" fill="#8b949e" font-size="9">DONE · history.md</text></g><g><rect x="968" y="540" width="208" height="68" rx="8" fill="#161b22" stroke="#30363d"/><rect x="968" y="540" width="5" height="68" rx="3" fill="#3fb950"/><text x="982" y="561" fill="#f0f6fc" font-size="12" font-weight="700">◽◽◽◽◽◽</text><text x="1164" y="561" text-anchor="end" fill="#8b949e" font-size="10">P3 · dg</text><text x="982" y="583" fill="#c9d1d9" font-size="11">Merge PR #◽◽ from …</text><text x="982" y="599" fill="#8b949e" font-size="9">DONE · history.md</text></g><g><rect x="968" y="616" width="208" height="68" rx="8" fill="#161b22" stroke="#30363d"/><rect x="968" y="616" width="5" height="68" rx="3" fill="#3fb950"/><text x="982" y="637" fill="#f0f6fc" font-size="12" font-weight="700">◽◽◽◽◽◽</text><text x="1164" y="637" text-anchor="end" fill="#8b949e" font-size="10">P3 · samples</text><text x="982" y="659" fill="#c9d1d9" font-size="11">Merge PR #◽◽ from …</text><text x="982" y="675" fill="#8b949e" font-size="9">DONE · history.md</text></g><g><rect x="968" y="692" width="208" height="68" rx="8" fill="#161b22" stroke="#30363d"/><rect x="968" y="692" width="5" height="68" rx="3" fill="#3fb950"/><text x="982" y="713" fill="#f0f6fc" font-size="12" font-weight="700">◽◽◽◽◽◽</text><text x="1164" y="713" text-anchor="end" fill="#8b949e" font-size="10">P3 · samples</text><text x="982" y="735" fill="#c9d1d9" font-size="11">Merge PR #◽◽ from …</text><text x="982" y="751" fill="#8b949e" font-size="9">DONE · history.md</text></g><text x="972" y="782" fill="#8b949e" font-size="10">ほか 69 件（JSON/INDEX参照）</text></g></svg>
